<svg xmlns="http://www.w3.org/2000/svg" viewBox="0 0 2200 1400" width="100%" height="100%" font-family="Helvetica, Arial, sans-serif">
    <rect width="2200" height="1400" fill="#FFFFFF"/>
    
    <!-- Title Banner -->
    <rect width="2200" height="120" fill="#0F172A"/>
    <text x="60" y="55" font-size="36" font-weight="bold" fill="#F8FAFC">FIGURE 4.1: END-TO-END SYSTEM ARCHITECTURE &amp; PROCESSING PIPELINE</text>
    <text x="60" y="95" font-size="22" fill="#94A3B8">CyberSentinel AI: Autonomous Tier-1 Cognitive Security Operations Platform</text>
    
    <!-- Marker def for arrows -->
    <defs>
        <marker id="arrow" viewBox="0 0 10 10" refX="6" refY="5" markerWidth="8" markerHeight="8" orient="auto-start-reverse">
            <path d="M 0 1 L 10 5 L 0 9 z" fill="#475569" />
        </marker>
    </defs>
    
    <!-- 5 Pipeline Stages -->
    <!-- Stage 1 -->
    <g transform="translate(55, 180)">
        <rect width="380" height="580" rx="12" fill="#EFF6FF" stroke="#3B82F6" stroke-width="3"/>
        <path d="M0,12 Q0,0 12,0 L368,0 Q380,0 380,12 L380,95 L0,95 Z" fill="#1E40AF"/>
        <text x="20" y="32" font-size="14" fill="#E2E8F0">STAGE 1</text>
        <text x="20" y="62" font-size="22" font-weight="bold" fill="#FFFFFF">TELEMETRY INGESTION</text>
        <text x="20" y="85" font-size="14" fill="#CBD5E1">FastAPI Async / SSE Pipe</text>
        <text x="25" y="145" font-size="17" fill="#1E293B">• Windows EventLogs (JSON/XML)</text>
        <text x="25" y="210" font-size="17" fill="#1E293B">• Linux Auth Syslog (RFC 3164)</text>
        <text x="25" y="275" font-size="17" fill="#1E293B">• Apache Access Logs (CLF)</text>
        <text x="25" y="340" font-size="17" fill="#1E293B">• Perimeter Firewall Logs (CSV)</text>
        <text x="25" y="405" font-size="17" fill="#1E293B">• Live SSE Streaming Buffer</text>
    </g>
    
    <!-- Arrow 1 to 2 -->
    <line x1="440" y1="470" x2="475" y2="470" stroke="#475569" stroke-width="4" marker-end="url(#arrow)"/>
    
    <!-- Stage 2 -->
    <g transform="translate(480, 180)">
        <rect width="380" height="580" rx="12" fill="#F0FDF4" stroke="#22C55E" stroke-width="3"/>
        <path d="M0,12 Q0,0 12,0 L368,0 Q380,0 380,12 L380,95 L0,95 Z" fill="#15803D"/>
        <text x="20" y="32" font-size="14" fill="#E2E8F0">STAGE 2</text>
        <text x="20" y="62" font-size="22" font-weight="bold" fill="#FFFFFF">NORMALIZATION &amp; FILTER</text>
        <text x="20" y="85" font-size="14" fill="#CBD5E1">BaseLogParser Factory &amp; ECS</text>
        <text x="25" y="145" font-size="17" fill="#1E293B">• Auto-Format Sniffing &amp; Routing</text>
        <text x="25" y="210" font-size="17" fill="#1E293B">• Regex IP/Port/User Tokenization</text>
        <text x="25" y="275" font-size="17" fill="#1E293B">• Elastic Common Schema (ECS)</text>
        <text x="25" y="340" font-size="17" fill="#1E293B">• Edge Filter (&gt;90% Noise Discard)</text>
        <text x="25" y="405" font-size="17" fill="#1E293B">• Emits NormalizedLogEvent</text>
    </g>
    
    <!-- Arrow 2 to 3 -->
    <line x1="865" y1="470" x2="900" y2="470" stroke="#475569" stroke-width="4" marker-end="url(#arrow)"/>
    
    <!-- Stage 3 -->
    <g transform="translate(905, 180)">
        <rect width="380" height="580" rx="12" fill="#FAF5FF" stroke="#A855F7" stroke-width="3"/>
        <path d="M0,12 Q0,0 12,0 L368,0 Q380,0 380,12 L380,95 L0,95 Z" fill="#6B21A8"/>
        <text x="20" y="32" font-size="14" fill="#E2E8F0">STAGE 3</text>
        <text x="20" y="62" font-size="22" font-weight="bold" fill="#FFFFFF">VECTOR RAG RETRIEVAL</text>
        <text x="20" y="85" font-size="14" fill="#CBD5E1">ChromaDB + ONNX MiniLM</text>
        <text x="25" y="145" font-size="17" fill="#1E293B">• Context Vectorization (384-dim)</text>
        <text x="25" y="210" font-size="17" fill="#1E293B">• all-MiniLM-L6-v2 ONNX Runtime</text>
        <text x="25" y="275" font-size="17" fill="#1E293B">• 600+ MITRE ATT&amp;CK v14 Index</text>
        <text x="25" y="340" font-size="17" fill="#1E293B">• Cosine Similarity k-NN Search</text>
        <text x="25" y="405" font-size="17" fill="#1E293B">• Sub-10ms Local CPU Latency</text>
    </g>
    
    <!-- Arrow 3 to 4 -->
    <line x1="1290" y1="470" x2="1325" y2="470" stroke="#475569" stroke-width="4" marker-end="url(#arrow)"/>
    
    <!-- Stage 4 -->
    <g transform="translate(1330, 180)">
        <rect width="380" height="580" rx="12" fill="#FFFBEB" stroke="#F59E0B" stroke-width="3"/>
        <path d="M0,12 Q0,0 12,0 L368,0 Q380,0 380,12 L380,95 L0,95 Z" fill="#B45309"/>
        <text x="20" y="32" font-size="14" fill="#E2E8F0">STAGE 4</text>
        <text x="20" y="62" font-size="22" font-weight="bold" fill="#FFFFFF">COGNITIVE AGENT &amp; CVSS</text>
        <text x="20" y="85" font-size="14" fill="#CBD5E1">Pydantic v2 Guardrails</text>
        <text x="25" y="145" font-size="17" fill="#1E293B">• Algorithmic CVSS Risk Engine</text>
        <text x="25" y="210" font-size="17" fill="#1E293B">• Dynamic Multipliers (+10, +15)</text>
        <text x="25" y="275" font-size="17" fill="#1E293B">• Attack Chain Correlation</text>
        <text x="25" y="340" font-size="17" fill="#1E293B">• Zero-Hallucination Synthesizer</text>
        <text x="25" y="405" font-size="17" fill="#1E293B">• Strict AIThreatAnalysisResult</text>
    </g>
    
    <!-- Arrow 4 to 5 -->
    <line x1="1715" y1="470" x2="1750" y2="470" stroke="#475569" stroke-width="4" marker-end="url(#arrow)"/>
    
    <!-- Stage 5 -->
    <g transform="translate(1755, 180)">
        <rect width="380" height="580" rx="12" fill="#FEF2F2" stroke="#EF4444" stroke-width="3"/>
        <path d="M0,12 Q0,0 12,0 L368,0 Q380,0 380,12 L380,95 L0,95 Z" fill="#991B1B"/>
        <text x="20" y="32" font-size="14" fill="#E2E8F0">STAGE 5</text>
        <text x="20" y="62" font-size="22" font-weight="bold" fill="#FFFFFF">SOAR &amp; AUDIT EXPORT</text>
        <text x="20" y="85" font-size="14" fill="#CBD5E1">React Workstation / ReportLab</text>
        <text x="25" y="145" font-size="17" fill="#1E293B">• Real-Time Cyber Radar Stream</text>
        <text x="25" y="210" font-size="17" fill="#1E293B">• Dynamic iptables Shun Scripts</text>
        <text x="25" y="275" font-size="17" fill="#1E293B">• NIST SP 800-61 Playbooks</text>
        <text x="25" y="340" font-size="17" fill="#1E293B">• ReportLab PDF Report Engine</text>
        <text x="25" y="405" font-size="17" fill="#1E293B">• SHA-256 Tamper Evidence Hash</text>
    </g>
    
    <!-- Lower Section -->
    <g transform="translate(55, 800)">
        <rect width="2090" height="520" rx="14" fill="#F8FAFC" stroke="#CBD5E1" stroke-width="2"/>
        <path d="M0,14 Q0,0 14,0 L2076,0 Q2090,0 2090,14 L2090,50 L0,50 Z" fill="#334155"/>
        <text x="30" y="33" font-size="20" font-weight="bold" fill="#F8FAFC">CROSS-TIER DATA CONTRACT &amp; MATHEMATICAL RISK SPECIFICATION</text>
        
        <!-- Col 1 -->
        <text x="35" y="90" font-size="18" font-weight="bold" fill="#0F172A">1. Normalized Log Event (ECS Standard)</text>
        <text x="40" y="130" font-size="15" font-family="monospace" fill="#334155">timestamp: ISO8601 (UTC Normalized)</text>
        <text x="40" y="170" font-size="15" font-family="monospace" fill="#334155">source_type: WINDOWS | LINUX | APACHE | FIREWALL</text>
        <text x="40" y="210" font-size="15" font-family="monospace" fill="#334155">source_ip / destination_ip: IPv4 / IPv6 validated</text>
        <text x="40" y="250" font-size="15" font-family="monospace" fill="#334155">event_type: AUTH_FAILURE | ESCALATION | SQLI_PROBE</text>
        <text x="40" y="290" font-size="15" font-family="monospace" fill="#334155">severity_hint: LOW | MEDIUM | HIGH | CRITICAL</text>
        <text x="40" y="330" font-size="15" font-family="monospace" fill="#334155">raw_payload: Original tamper-evident hex / log string</text>
        
        <!-- Col 2 -->
        <text x="725" y="90" font-size="18" font-weight="bold" fill="#0F172A">2. Deterministic CVSS Risk Quantification</text>
        <text x="730" y="130" font-size="15" font-family="monospace" fill="#334155">Risk Score = min(100.0, BaseSeverity + Sum(W_progression))</text>
        <text x="730" y="170" font-size="15" font-family="monospace" fill="#334155">• BaseSeverity: CRITICAL=85, HIGH=70, MEDIUM=50, LOW=25</text>
        <text x="730" y="210" font-size="15" font-family="monospace" fill="#334155">• W_compromise = +10.0 (Failed auth followed by success)</text>
        <text x="730" y="250" font-size="15" font-family="monospace" fill="#334155">• W_priv_esc   = +15.0 (Unauthorized sudo / root assignment)</text>
        <text x="730" y="290" font-size="15" font-family="monospace" fill="#334155">• W_injection  = +12.0 (SQLi payloads / path traversal)</text>
        <text x="730" y="330" font-size="15" font-family="monospace" fill="#334155">• W_target     = +8.0  (Critical user: root, administrator)</text>
        
        <!-- Col 3 -->
        <text x="1445" y="90" font-size="18" font-weight="bold" fill="#0F172A">3. Operational SLAs &amp; System Guarantees</text>
        <text x="1450" y="130" font-size="15" font-family="monospace" fill="#334155">• Mean Time to Respond (MTTR): &lt; 2.4s end-to-end</text>
        <text x="1450" y="170" font-size="15" font-family="monospace" fill="#334155">• Edge Pre-Filter Rate: 99.2% benign noise reduction</text>
        <text x="1450" y="210" font-size="15" font-family="monospace" fill="#334155">• Zero Hallucination: 100% Pydantic &amp; MITRE grounded</text>
        <text x="1450" y="250" font-size="15" font-family="monospace" fill="#334155">• Air-Gap Capability: 100% offline (Local ONNX + SQLite)</text>
        <text x="1450" y="290" font-size="15" font-family="monospace" fill="#334155">• Automated Test Coverage: 9/9 pytest suites passed</text>
        <text x="1450" y="330" font-size="15" font-family="monospace" fill="#334155">• Export Verification: SHA-256 cryptographic PDF digest</text>
    </g>
    
    <text x="60" y="1365" font-size="14" fill="#64748B">Figure 4.1: Comprehensive Architecture and Telemetry Processing Framework of CyberSentinel AI.</text>
</svg>